<svg viewBox="0 0 272.96564 113.93797" xml:space="preserve" xmlns="http://www.w3.org/2000/svg"><defs><clipPath id="clipPath18"><path d="m0,0h2183.73v912h-2183.73v-912z"></path></clipPath><clipPath id="clipPath3018"><path d="m230.8919,51.9769-49.7423-49.7387c-2.8623-2.8648-7.5083-2.8648-10.3745,0l-10.3286,10.3295 13.1021,13.1026c3.0459-1.0284 6.5371-.3389 8.9639,2.0884 2.4394,2.4424 3.124,5.9634 2.0698,9.0195l12.628,12.6275c3.0551-1.0528 6.58-.3726 9.0195,2.0713 3.4106,3.4096 3.4106,8.9345 0,12.3453s-8.936,3.4116-12.3486,0c-2.5645-2.5665-3.1988-6.3345-1.8999-9.4942l-11.7769-11.7773-.001,30.9911c.8315.4116 1.6163.961 2.3091,1.6509 3.4096,3.4093 3.4096,8.9331 0,12.3478s-8.938,3.4091-12.3453,0-3.4101-8.9385 0-12.3478c.8428-.8413 1.8179-1.478 2.8584-1.9047v-31.2787c-1.0405-.4254-2.0141-1.0576-2.8584-1.9049-2.583-2.581-3.2051-6.372-1.8804-9.5439l-12.9155-12.918-34.1065,34.1045c-2.8657,2.8671-2.8657,7.5131 0,10.3784l49.7417,49.7388c2.8638,2.8647 7.5083,2.8647 10.376,0l49.5093-49.5083c2.8647-2.8663 2.8647-7.5136 0-10.3789"></path></clipPath></defs><g transform="matrix(1.25,0,0,-1.25,-.33805,139.41441)"><g transform="scale(.1)"><g clip-path="url(#clipPath18)"></g></g></g><g transform="translate(-.3381,25.4018)"><g clip-path="url(#clipPath3018)" transform="translate(-118.7776,-25.4764)"><path d="m230.4355-10.8129-49.7422-49.7388c-2.8622-2.8647-7.5083-2.8647-10.3745,0l-49.5102,49.5088c-2.8657,2.8671-2.8657,7.5131 0,10.3784l49.7417,49.7388c2.8638,2.8647 7.5083,2.8647 10.376,0l49.5093-49.5083c2.8647-2.8662 2.8647-7.5136 0-10.3789" fill="#ff8080"></path><path d="m293.3929,51.9276-49.7423-49.7388c-2.8622-2.8647-7.5083-2.8647-10.3745,0l-49.5102,49.5088c-2.8657,2.8671-2.8657,7.5131 0,10.3784l49.7417,49.7388c2.8638,2.8648 7.5083,2.8648 10.376,0l49.5093-49.5083c2.8647-2.8662 2.8647-7.5136 0-10.3789" fill="#8dd35f"></path><path d="m167.4356,51.5209-49.7422-49.7388c-2.8623-2.8647-7.5083-2.8647-10.3745,0l-49.5102,49.5088c-2.8657,2.8671-2.8657,7.5131 0,10.3784l49.7417,49.7388c2.8638,2.8647 7.5083,2.8647 10.376,0l49.5092-49.5083c2.8647-2.8662 2.8647-7.5136 0-10.3789" fill="#80b3ff"></path><path d="m230.1294,114.1172-49.7422-49.7388c-2.8622-2.8647-7.5083-2.8647-10.3745,0l-49.5102,49.5088c-2.8657,2.8671-2.8657,7.5131 0,10.3784l49.7417,49.7388c2.8638,2.8647 7.5083,2.8647 10.376,0l49.5093-49.5083c2.8647-2.8663 2.8647-7.5136 0-10.3789" fill="#ffe680"></path></g></g><g transform="translate(-.3381,25.4018)"><path d="m163.9287,13.4983c-5.985,0-10.4425,2.9389-10.4425,10.0116 0,5.3291 2.9375,9.0284 10.12,9.0284 6.0875,0 10.2225-3.5869 10.2225-9.2485 0-6.416-3.7-9.7915-9.9-9.7915zm-11.9663,49.9399c-1.4163,1.7383-2.8275,3.585-2.8275,5.7646 0,4.3483 5.545,5.6567 13.1625,5.6567 6.31,0 14.905-.4419 14.905-6.3085 0-3.4869-4.135-3.7028-9.36-4.0304l-15.88-1.0825zm32.2013-49.6112c1.955,2.5029 4.025,5.9848 4.025,10.9888 0,12.0751-9.465,19.1455-23.1687,19.1455-3.485,0-6.64-.4341-8.5962-.9771l-3.5913,5.7648 10.66.6513c18.8225,1.1992 29.915,1.7443 29.915,16.2076 0,12.5136-10.985,19.5815-29.915,19.5815-19.69,0-27.1962-5.0049-27.1962-13.5976 0-4.8975 2.1763-7.5025 5.9837-11.0978-3.5913-1.518-4.7862-4.2363-4.7862-7.1748 0-2.395 1.195-4.5702 3.1563-6.6386 1.9575-2.065 4.1325-4.1348 6.7438-6.5274-5.33-2.6104-9.3562-8.2676-9.3562-16.3194 0-12.5093 8.2688-21.1005 24.91-21.1005 4.6788,0 7.5088.4306 10.0113,1.0874h21.215v9.2446l-10.01.7618" fill="#362701"></path><path d="m213.3124-5.9412c-6.2025,0-9.7912-3.5933-9.7912-9.7964s3.5888-9.5704 9.7912-9.5704c6.31,0 9.9,3.375 9.9,9.5704s-3.59,9.7964-9.9,9.7964zm-14.0363,65.3765v-8.5899l5.55-.7592c1.5237-.2208 1.74-.5445 1.74-2.1803v-31.9834c0-1.1943-.325-1.959-1.4163-2.2828l-5.8738-2.0688 1.1963-8.8086h22.5212v45.1435c0,1.7437.105,1.9595 1.7413,2.1803l5.5488.7592v8.5899h-31.0075" fill="#362701"></path><path d="m273.3037,55.2179c-4.68,2.2818-11.5325,4.3491-17.7362,4.3491-12.945,0-17.8388-5.2168-17.8388-17.5151v-28.5005c0-.6514 0-1.0884-.8738-1.0884h-7.6137v-9.6816c9.5762-1.0908 13.3813-5.8784 14.5775-17.7357h10.3363v15.4531c0,.7588 0,1.0874.8712,1.0874h15.3375v10.8769h-16.2087v25.9986c0,6.4194 1.525,8.9194 7.3963,8.9194 3.05,0 6.2012-.7592 8.8125-1.7393l2.94,9.5761" fill="#362701"></path><path d="m195.3859,64.5032 .3223-2.4316h5.2881l.2344,1.5527 .1611.044c1.543-1.2598 3.1396-1.8896 4.79-1.8896 1.7187,1.6e-005 2.9394.5957 3.6621,1.7871 1.5234-1.2012 3.1347-1.7969 4.834-1.7871 1.582,1.6e-005 2.7124.4028 3.3911,1.2085s1.018,2.0923 1.0181,3.8599v7.6758c-3e-005,.2441.0244.4053.0732.4834s.1855.127.4102.1465l1.4941.1758v2.373h-6.5039v-9.6973c-2e-005-.498-.0269-.9058-.0806-1.2231s-.2149-.6225-.4834-.9155-.6421-.4394-1.1206-.4395c-.8008,1.2e-005-1.6113.2735-2.4316.8203 .0586.4785.0879.9668.0879,1.4648v6.8115c-2e-005,.2637.0244.4297.0732.498s.1855.1123.4102.1318l1.2012.1758v2.373h-6.2109v-9.8438c-1e-005-.3418-.0147-.6274-.0439-.8569s-.0904-.4785-.1831-.7471-.2539-.4736-.4834-.6152-.5249-.2124-.8862-.2124c-.8984,1.2e-005-1.7285.3223-2.4902.9668v8.1299c-1e-005,.2441.022.3955.0659.4541s.1831.1074.4175.1465l1.4795.2051v2.373h-8.3203v-2.373l1.3477-.2051c.1953-.0195.3247-.0708.3882-.1538s.0952-.2319.0952-.4468v-8.8184c0-.3418-.127-.5517-.3809-.6299z" fill="#362701"></path><path d="m222.5295,76.9837v-4.3506l3.208.2344 .293,1.7139c.0195.2637.1416.415.3662.4541 .5957.1953 1.3672.293 2.3144.293 1.6602,2e-006 2.4902-.5176 2.4902-1.5527-1e-005-.5371-.2319-.9375-.6958-1.2012s-1.145-.4736-2.0435-.6299l-1.1353-.2124c-.2393-.0439-.6055-.1343-1.0986-.271s-.8691-.271-1.1279-.4028-.5737-.3271-.9448-.5859-.6445-.5395-.8203-.8423-.3345-.6787-.4761-1.1279-.2124-.9424-.2124-1.4795c0-1.7383.6348-3.0469 1.9043-3.9258s2.8467-1.3183 4.7314-1.3184c2.1973,1.6e-005 4.0332.2881 5.5078.8643v4.3506l-3.208-.2051-.293-1.5674c-.0195-.2441-.1221-.3857-.3076-.4248-.5176-.1562-1.1572-.2344-1.9189-.2344-1.5625,1.3e-005-2.3438.5078-2.3438,1.5234 0,.3613.1563.6616.4688.9009s.6543.415 1.0254.5273 .8935.2466 1.5674.4028l.4248.0879c.7227.1563 1.3281.3272 1.8164.5127s1.0083.4517 1.5601.7983 .9668.8203 1.2451,1.4209 .4175,1.3208.4175,2.1606c-1e-005,1.7383-.6201,3.0347-1.8603,3.8892s-2.8809,1.2817-4.9219,1.2817c-1.2402-1e-006-2.4585-.1245-3.6548-.3735s-1.9556-.4858-2.2778-.7104z" fill="#362701"></path><path d="m236.1232,64.5032 .4834-2.4316h7.9541v2.4316l-1.8897.2344 3.3252,7.9248h.2051l3.1787-7.9248-1.9483-.2344 .3955-2.4316h6.6943v2.4316l-.9668.1758c-.3809.0586-.6299.2295-.7471.5127l-6.6064,16.1426 3.1201.3223v2.4023h-9.9902v-2.4316l2.3438-.2637c.3223-.0195.5713-.2393.7471-.6592l1.2891-2.8564-5.7275-12.5391c-.0781-.2637-.2881-.4346-.6299-.5127z" fill="#362701"></path><path d="m255.6935,76.9837v-4.3506l3.208.2344 .293,1.7139c.0195.2637.1416.415.3662.4541 .5957.1953 1.3672.293 2.3144.293 1.6602,2e-006 2.4902-.5176 2.4902-1.5527-1e-005-.5371-.2319-.9375-.6958-1.2012s-1.145-.4736-2.0435-.6299l-1.1353-.2124c-.2393-.0439-.6055-.1343-1.0986-.271s-.8691-.271-1.1279-.4028-.5737-.3271-.9448-.5859-.6445-.5395-.8203-.8423-.3345-.6787-.4761-1.1279-.2124-.9424-.2124-1.4795c0-1.7383.6348-3.0469 1.9043-3.9258s2.8467-1.3183 4.7314-1.3184c2.1973,1.6e-005 4.0332.2881 5.5078.8643v4.3506l-3.208-.2051-.293-1.5674c-.0195-.2441-.1221-.3857-.3076-.4248-.5176-.1562-1.1572-.2344-1.9189-.2344-1.5625,1.3e-005-2.3438.5078-2.3438,1.5234-1e-005,.3613.1562.6616.4688.9009s.6543.415 1.0254.5273 .8935.2466 1.5674.4028l.4248.0879c.7227.1563 1.3281.3272 1.8164.5127s1.0083.4517 1.5601.7983 .9668.8203 1.2451,1.4209 .4175,1.3208.4175,2.1606c-2e-005,1.7383-.6201,3.0347-1.8603,3.8892s-2.8809,1.2817-4.9219,1.2817c-1.2402-1e-006-2.4585-.1245-3.6548-.3735s-1.9556-.4858-2.2778-.7104z" fill="#362701"></path></g></svg>
