<?xml version="1.0" encoding="UTF-8" standalone="no"?>
<!-- Created with Inkscape (http://www.inkscape.org/) -->
<svg
   xmlns:dc="http://purl.org/dc/elements/1.1/"
   xmlns:cc="http://web.resource.org/cc/"
   xmlns:rdf="http://www.w3.org/1999/02/22-rdf-syntax-ns#"
   xmlns:svg="http://www.w3.org/2000/svg"
   xmlns="http://www.w3.org/2000/svg"
   xmlns:sodipodi="http://sodipodi.sourceforge.net/DTD/sodipodi-0.dtd"
   xmlns:inkscape="http://www.inkscape.org/namespaces/inkscape"
   id="svg2"
   sodipodi:version="0.32"
   inkscape:version="0.44.1"
   width="97"
   height="188"
   version="1.0"
   sodipodi:docbase="/home/gene099"
   sodipodi:docname="gitlogo.svg">
  <metadata
     id="metadata7">
    <rdf:RDF>
      <cc:Work
         rdf:about="Git Logo">
        <dc:format>image/svg+xml</dc:format>
        <dc:type
           rdf:resource="http://purl.org/dc/dcmitype/StillImage" />
      </cc:Work>
    </rdf:RDF>
  </metadata>
  <defs
     id="defs5" />
  <sodipodi:namedview
     inkscape:window-height="632"
     inkscape:window-width="1098"
     inkscape:pageshadow="2"
     inkscape:pageopacity="0.0"
     guidetolerance="10.0"
     gridtolerance="10.0"
     objecttolerance="10.0"
     borderopacity="1.0"
     bordercolor="#666666"
     pagecolor="#ffffff"
     id="base"
     inkscape:zoom="4.0212766"
     inkscape:cx="56.955026"
     inkscape:cy="55.854568"
     inkscape:window-x="174"
     inkscape:window-y="60"
     inkscape:current-layer="svg2"
     showguides="false" />
  <g
     id="g1915"
     transform="translate(-3.915344e-5,-1.587301e-8)">
    <path
       style="fill:none"
       d="M 0,94 C 0,62.666667 0,31.333333 0,0 C 32.333333,0 64.666667,0 97,0 C 97,62.666667 97,125.33333 97,188 C 64.666667,188 32.333333,188 0,188 C 0,156.66667 0,125.33333 0,94 z "
       id="path1919" />
    <path
       style="fill:#666;fill-opacity:1"
       d="M 37.664899,184.58554 C 21.895418,182.55403 5.6661972,167.64367 3.3987193,150.1511 C 1.2240485,135.52701 4.3614628,118.45697 16.450174,108.80568 C 21.75244,105.19169 28.965047,101.14246 35.325463,101.62434 C 35.515961,108.09863 35.134965,115.96793 35.325463,122.44222 C 27.749678,123.28567 20.416427,131.89654 20.569051,139.78073 C 20.754756,150.04074 25.295526,159.46754 35.166718,162.53826 C 46.085307,166.2122 58.583978,165.16727 68.691405,159.05921 C 77.041121,152.55358 77.813587,140.44085 73.446467,131.22303 C 71.482045,126.15057 67.247476,122.42665 61.5,122.44222 L 61.5,140.5 L 45.29359,140.5 L 45.29359,101.62434 L 94.37037,101.62434 L 94.37037,115.60423 L 80.927975,115.72857 C 93.471899,122.87923 94.757645,138.31236 94.114862,149.01935 C 94.566741,167.41218 76.395502,182.4083 58.372879,184.41334 C 51.852471,184.9022 46.335496,184.92793 37.664899,184.58554 z "
       id="path1927"
       sodipodi:nodetypes="ccccccccccccccccccc" />
    <path
       style="fill:#d8382d;fill-opacity:1"
       d="M 2.6030317,93.90175 L 2.5,73.5 L 94.5,73.5 L 94.489423,94 L 2.6030317,93.90175 z "
       id="path1925"
       sodipodi:nodetypes="ccccc" />
    <path
       style="fill:#40bf4c;fill-opacity:1"
       d="M 37.666668,66.333336 L 37.666668,44.5 L 2,44.5 L 2,25.5 L 37.666668,25.5 L 37.666668,1 L 59,1 L 59,25.5 L 94.5,25.5 L 94.5,44.5 L 59,44.5 L 58.648317,66.287772 L 37.666668,66.333336 z "
       id="path1917"
       sodipodi:nodetypes="ccccccccccccc" />
  </g>
</svg>
